# xmcd
#
# Track frame offsets:
# 150
# 19035
# 37322
# 53592
# 69712
# 89782
# 108312
# 122454
# 139135
# 157815
# 176687
# 189470
# 204177
# 224197
# 241472
#
# Disc length: 3444 seconds
#
#
# Revision: 1
# Processed by: cddbd v1.4PL0 Copyright (c) Steve Scherf et al.
# Submitted via: FreeRIP 2.52 
#
DISCID=db0d720f
DTITLE=Various Artist - Focus On Romantic Samba
DYEAR=1900
DGENRE=
TTITLE0=Falsa Concideracao
TTITLE1=O Teu Chamego
TTITLE2=Ex-Amor
TTITLE3=Marrom Bombom
TTITLE4=Depois Do Prazer
TTITLE5=Eu E Ela
TTITLE6=Quantas Lagrimas
TTITLE7=Se Tivesse Do
TTITLE8=Anatomia
TTITLE9=Interfone
TTITLE10=Danca da Solidao
TTITLE11=Compasso Do Amor
TTITLE12=Meu Casamento
TTITLE13=Garoto Maroto
TTITLE14=Reverso Da Paixao
EXTD=
EXTT0=
EXTT1=
EXTT2=
EXTT3=
EXTT4=
EXTT5=
EXTT6=
EXTT7=
EXTT8=
EXTT9=
EXTT10=
EXTT11=
EXTT12=
EXTT13=
EXTT14=
PLAYORDER=
